# xmcd
#
# Track frame offsets:
#	150
#	19127
#	38795
#	58837
#	76572
#	90985
#	110202
#	131305
#	149992
#	166242
#	183912
#	202290
#
# Disc length: 2929 seconds
#
# Revision: 3
# Processed by: cddbd v1.5.2PL0 Copyright (c) Steve Scherf et al.
# Submitted via: EasyCDDAExtractor 15.3.0.1
#
DISCID=a50b6f0c
DTITLE=Ednita Nazario - Por Siempre Ednita - 12 Super Exitos
DYEAR=1997
DGENRE=Latin
TTITLE0=Te Sigo Esperando
TTITLE1=Tanto Nos Amamos
TTITLE2=Quiero Que Me Hagas El Amor
TTITLE3=Eres Libre
TTITLE4=Mirame
TTITLE5=Pensando Siempre En Ti
TTITLE6=Lo Que Son Las Cosas
TTITLE7=Dime Tu
TTITLE8=No Voy A Llorar
TTITLE9=Tres Deseos
TTITLE10=Por Ti Me Casare
TTITLE11=Un Corazon Hecho Pedazos
EXTD=
EXTT0=
EXTT1=
EXTT2=
EXTT3=
EXTT4=
EXTT5=
EXTT6=
EXTT7=
EXTT8=
EXTT9=
EXTT10=
EXTT11=
PLAYORDER=
